<svg xmlns="http://www.w3.org/2000/svg" viewBox="0 0 160 57.831">
  <defs/>
  <path fill="#fff" d="M38.554 42.795V15.807h9.941q4.687 0 7.012 2.4a8.779 8.779 0 012.324 6.379 7.853 7.853 0 01-2.627 6.417 10.957 10.957 0 01-7.2 2.176h-4.2v9.617zm5.254-14.267h3.516a5.6 5.6 0 003.723-1.078 4.108 4.108 0 00.019-5.914 5.208 5.208 0 00-3.512-1.079h-3.742zM76.337 33.351a7.63 7.63 0 01-.115 1.8h-13.2a4.763 4.763 0 001.732 2.639 4.966 4.966 0 003.078.956 5.478 5.478 0 004.5-2.1l3.27 3.021q-2.809 3.521-8.118 3.519a9.486 9.486 0 01-6.925-2.677 9.363 9.363 0 01-2.732-7 9.461 9.461 0 012.636-6.9 8.938 8.938 0 016.675-2.7 8.8 8.8 0 016.637 2.658 9.388 9.388 0 012.562 6.784zm-9.041-5.049a4.143 4.143 0 00-4.232 3.251h8.267a3.858 3.858 0 00-4.035-3.249zM89.836 23.904a1.152 1.152 0 01.386.038v5.408q-.5-.038-1.311-.038a4.636 4.636 0 00-3.547 1.352 4.88 4.88 0 00-1.272 3.485v8.646h-5.056V24.29h5.051v2.662h.039a6.74 6.74 0 015.71-3.048zM103.729 23.904a8.239 8.239 0 016.329 2.741 9.881 9.881 0 012.52 6.957 9.709 9.709 0 01-2.52 6.957 8.528 8.528 0 01-6.484 2.664 6.944 6.944 0 01-5.541-2.415h-.077v10.469h-5.04V24.29h5.041v2.068h.077a7.21 7.21 0 015.695-2.454zm-1.078 14.834a4.549 4.549 0 003.483-1.418 5.169 5.169 0 001.327-3.68 5.311 5.311 0 00-1.366-3.814 4.87 4.87 0 00-6.965.057 5.355 5.355 0 00-1.366 3.757 5 5 0 001.4 3.68 4.7 4.7 0 003.487 1.418zM115.277 42.795V15.807h5.012v26.988z"/>
  <path fill="#fff" d="M23.623 38.756a11.864 11.864 0 01.964 1.282.064.064 0 00.088.022.066.066 0 00.014-.012l1.123-1.134a.069.069 0 00.007-.089 13.494 13.494 0 00-9.388-5.79.067.067 0 01-.057-.069v-1.11a.063.063 0 01.054-.065 10.083 10.083 0 005.708-3.146.07.07 0 00-.005-.1.07.07 0 00-.045-.018H7.278a.069.069 0 00-.069.068.068.068 0 00.018.048 10.083 10.083 0 005.708 3.146.068.068 0 01.054.065v1.113a.064.064 0 01-.057.065 13.695 13.695 0 00-5.923 24.783.066.066 0 00.088-.007l1.123-1.133a.067.067 0 000-.093l-.011-.009A12.021 12.021 0 016.94 55.6l1.192-1.2a10.075 10.075 0 0014.295-1.187 10.315 10.315 0 000-13.246zm-2.39.183A10.142 10.142 0 006.94 53.23l-1.193 1.193a11.827 11.827 0 0116.684-16.684z"/>
  <path fill="#fff" d="M141.494 33.351a7.616 7.616 0 01-.115 1.8h-13.2a4.763 4.763 0 001.731 2.639 4.966 4.966 0 003.078.956 5.479 5.479 0 004.5-2.1l3.27 3.021q-2.809 3.521-8.118 3.519a9.487 9.487 0 01-6.926-2.677 9.363 9.363 0 01-2.731-7 9.462 9.462 0 012.636-6.9 8.938 8.938 0 016.675-2.7 8.8 8.8 0 016.637 2.658 9.389 9.389 0 012.563 6.784zm-9.041-5.049a4.143 4.143 0 00-4.232 3.251h8.267a3.857 3.857 0 00-4.035-3.249z"/>
  <path fill="#fff" d="M160 24.289h-5.783l-3.47 5.047-3.47-5.047h-5.783l6.361 9.253-6.361 9.253h5.783l3.47-5.047 3.47 5.047H160l-6.361-9.253zM6.45 26.988h16.131a.069.069 0 00.065-.045c1.485-5.9 2.888-13.958 2.8-20.391a1.528 1.528 0 00-1.458-1.594 1.55 1.55 0 00-.159 0 1.724 1.724 0 00-1.621 1.663l-1.275 9.572a.6002.6002 0 01-1.2.031l.7-13.487a1.8 1.8 0 00-3.593-.07l-.7 12.117a.6002.6002 0 01-1.2.031V1.671a1.8 1.8 0 00-3.593-.07v11.816a.577.577 0 01-.5.557c-.376.055-.7-.544-.7-.868l-.708-9.3a1.8 1.8 0 00-3.593-.071l.93 13.323a.411.411 0 01-.763.239L3.788 14.12a2.076 2.076 0 00-2.807-.752 1.886 1.886 0 00-.568 2.825 33.116 33.116 0 014.12 6.262 42.252 42.252 0 011.856 4.492.071.071 0 00.061.041z"/>
</svg>
